<svg width="54" height="37" viewBox="0 0 54 37" fill="none" xmlns="http://www.w3.org/2000/svg">
<path d="M0.31665 7.01502C0.31665 4.61515 2.26212 2.66968 4.66199 2.66968C7.06185 2.66968 9.00733 4.61515 9.00733 7.01502V37H5.31665C2.55523 37 0.31665 34.7615 0.31665 32V7.01502Z" fill="#0094FF"/>
<path d="M42.4331 7.01502C42.4331 4.61515 44.3786 2.66968 46.7784 2.66968C49.1783 2.66968 51.1238 4.61515 51.1238 7.01502V32C51.1238 34.7615 48.8852 37 46.1238 37H42.4331V7.01502Z" fill="#03A400"/>
<path d="M44.2099 2.58403C45.9794 1.17929 48.6838 1.34923 50.262 2.96433C51.8616 4.60145 51.6917 7.09404 49.8845 8.50365L39.8151 16.3574L38.1734 7.37635L44.2099 2.58403Z" fill="#FFE600"/>
<path fill-rule="evenodd" clip-rule="evenodd" d="M0.762012 4.2046C2.11055 2.30227 4.7853 1.79508 6.73662 3.07178L27.1995 16.4605L38.2649 7.28761L39.8558 16.3169L27.5589 26.6567L1.86553 9.97022C-0.0951902 8.69673 -0.589668 6.11193 0.762012 4.2046Z" fill="#FF0909" fill-opacity="0.86"/>
</svg>
